<?xml version="1.0" encoding="UTF-8"?>
<svg width="70px" height="44px" viewBox="0 0 70 44" version="1.1" xmlns="http://www.w3.org/2000/svg" xmlns:xlink="http://www.w3.org/1999/xlink">
    <!-- Generator: Sketch 44.1 (41455) - http://www.bohemiancoding.com/sketch -->
    <title>maestro</title>
    <desc>Created with Sketch.</desc>
    <defs></defs>
    <g id="Figurehead" stroke="none" stroke-width="1" fill="none" fill-rule="evenodd">
        <g id="acceptance-logos" transform="translate(-141.000000, -47.000000)" fill-rule="nonzero">
            <g id="maestro" transform="translate(141.000000, 47.000000)">
                <polygon id="path12" fill="#000000" transform="translate(34.999996, 21.991154) scale(-1, 1) rotate(-180.000000) translate(-34.999996, -21.991154) " points="69.7571632 0.0123930973 0.242828639 0.0123930973 0.242828639 43.969914 69.7571632 43.969914"></polygon>
                <g id="g22" transform="translate(35.508993, 37.724676) scale(-1, 1) rotate(-180.000000) translate(-35.508993, -37.724676) translate(18.938197, 34.937065)" fill="#FFFFFF">
                    <path d="M32.625368,0.516224168 L32.625368,0.419174022 L32.7149844,0.419174022 C32.7352203,0.419174022 32.7517397,0.423303817 32.7637159,0.431150424 C32.7761053,0.438997031 32.7823,0.451386411 32.7823,0.468318565 C32.7823,0.48442476 32.7761053,0.496401159 32.7637159,0.504247766 C32.7517397,0.512507354 32.7352203,0.516224168 32.7149844,0.516224168 L32.625368,0.516224168 Z M32.7158105,0.584365758 C32.7624769,0.584365758 32.7988193,0.574041275 32.824011,0.55339231 C32.8492026,0.532330363 32.8620052,0.504247766 32.8620052,0.468318565 C32.8620052,0.438171074 32.8516805,0.412979335 32.8318575,0.393569304 C32.8116216,0.374159273 32.7827131,0.362182874 32.745545,0.3576401 L32.8648959,0.22011798 L32.7715627,0.22011798 L32.660884,0.356814144 L32.625368,0.356814144 L32.625368,0.22011798 L32.5473149,0.22011798 L32.5473149,0.584365758 L32.7158105,0.584365758 Z M32.6926835,0.0949852394 C32.7352203,0.0949852394 32.7744535,0.103244827 32.8112087,0.118938044 C32.8475508,0.135044235 32.8797632,0.156932142 32.9070198,0.184601758 C32.9346893,0.211858395 32.9561645,0.244483762 32.9722707,0.281651904 C32.9879637,0.318820042 32.9958105,0.35846606 32.9958105,0.401002932 C32.9958105,0.443126826 32.9879637,0.482772841 32.9722707,0.519940982 C32.9561645,0.557109124 32.9346893,0.589734492 32.9070198,0.617404107 C32.8797632,0.644660744 32.8475508,0.666548648 32.8112087,0.682241864 C32.7744535,0.697935077 32.7352203,0.705781684 32.6926835,0.705781684 C32.6497336,0.705781684 32.6096747,0.697935077 32.5720937,0.682241864 C32.5345123,0.666548648 32.5018871,0.644660744 32.4742176,0.617404107 C32.4469609,0.589734492 32.4250729,0.557109124 32.4093796,0.519940982 C32.3936866,0.482772841 32.3858398,0.443126826 32.3858398,0.401002932 C32.3858398,0.35846606 32.3936866,0.318820042 32.4093796,0.281651904 C32.4250729,0.244483762 32.4469609,0.211858395 32.4742176,0.184601758 C32.5018871,0.156932142 32.5345123,0.135044235 32.5720937,0.118938044 C32.6096747,0.103244827 32.6497336,0.0949852394 32.6926835,0.0949852394 L32.6926835,0.0949852394 Z M32.6926835,0.793333304 C32.7480229,0.793333304 32.7996451,0.783008822 32.8479637,0.762359856 C32.8962823,0.741710888 32.9388193,0.714041272 32.9751614,0.678112069 C33.0110906,0.642595846 33.0395862,0.601297912 33.0606481,0.55339231 C33.0812972,0.505486704 33.0916216,0.454690247 33.0916216,0.401002932 C33.0916216,0.346902639 33.0812972,0.296519158 33.0606481,0.249026533 C33.0395862,0.201533912 33.0110906,0.160235978 32.9751614,0.124306774 C32.9388193,0.0887905491 32.8962823,0.0607079553 32.8479637,0.0396460084 C32.7996451,0.0189970429 32.7480229,0.00867255708 32.6926835,0.00867255708 C32.6361053,0.00867255708 32.583657,0.0189970429 32.5345123,0.0396460084 C32.485368,0.0607079553 32.4428309,0.0887905491 32.4073149,0.124306774 C32.3713857,0.160235978 32.3428901,0.201533912 32.3218282,0.249026533 C32.3011791,0.296519158 32.2908547,0.346902639 32.2908547,0.401002932 C32.2908547,0.454690247 32.3011791,0.505486704 32.3218282,0.55339231 C32.3428901,0.601297912 32.3713857,0.642595846 32.4073149,0.678112069 C32.4428309,0.714041272 32.485368,0.741710888 32.5345123,0.762359856 C32.583657,0.783008822 32.6361053,0.793333304 32.6926835,0.793333304 L32.6926835,0.793333304 Z M26.7544536,4.25822996 C26.927492,4.25822996 27.1748666,4.22519164 27.3648371,4.15085535 L27.1009433,3.34265477 C26.9192324,3.41699106 26.7379344,3.44176982 26.5648961,3.44176982 C26.0036572,3.44176982 25.7232442,3.07876097 25.7232442,2.42707958 L25.7232442,0.216814147 L24.8654861,0.216814147 L24.8654861,4.15911492 L25.7153976,4.15911492 L25.7153976,3.68088486 C25.9379935,4.02696155 26.2597044,4.25822996 26.7544536,4.25822996 L26.7544536,4.25822996 Z M23.7859581,3.37569313 L22.3838932,3.37569313 L22.3838932,1.59410025 C22.3838932,1.19805306 22.5238932,0.934159261 22.9529788,0.934159261 C23.1755746,0.934159261 23.4559876,1.00849554 23.7116218,1.15675513 L23.9589965,0.422890836 C23.6868431,0.23333332 23.2581705,0.117699106 22.8869021,0.117699106 C21.8726248,0.117699106 21.5178756,0.662005874 21.5178756,1.57758107 L21.5178756,3.37569313 L20.7179346,3.37569313 L20.7179346,4.15911492 L21.5178756,4.15911492 L21.5174626,5.35510311 L22.3834803,5.35510311 L22.3838932,4.15911492 L23.7859581,4.15911492 L23.7859581,3.37569313 Z M19.6644243,3.15268428 C19.4253092,3.30135685 18.9384066,3.49091437 18.4353978,3.49091437 C17.9654273,3.49091437 17.6850143,3.31787601 17.6850143,3.02920345 C17.6850143,2.76530966 17.9819464,2.69097338 18.3528019,2.64182884 L18.7571087,2.58401173 C19.6148668,2.46011792 20.1343948,2.09710908 20.1343948,1.40454273 C20.1343948,0.653746289 19.4744538,0.117699106 18.3362827,0.117699106 C17.6932739,0.117699106 17.0994096,0.282890842 16.6290261,0.629380506 L17.0333329,1.2971681 C17.3220055,1.07457224 17.750678,0.884601739 18.3445423,0.884601739 C18.930147,0.884601739 19.2435983,1.05805306 19.2435983,1.3632448 C19.2435983,1.58584066 19.0210025,1.70973446 18.551032,1.77539818 L18.1467252,1.83321528 C17.2641884,1.95710909 16.7859583,2.35315628 16.7859583,2.99616512 C16.7859583,3.77958691 17.4289671,4.25822996 18.4271382,4.25822996 C19.0540408,4.25822996 19.6231264,4.117817 20.0352797,3.84566362 L19.6644243,3.15268428 Z M13.1158109,2.53445421 C13.2066663,3.10353973 13.552743,3.49091437 14.1631265,3.49091437 C14.7156929,3.49091437 15.0704421,3.14483769 15.1612976,2.53445421 L13.1158109,2.53445421 Z M16.052094,2.18796454 C16.0438344,3.41699106 15.2847784,4.25822996 14.1796457,4.25822996 C13.0249554,4.25822996 12.2167549,3.41699106 12.2167549,2.18796454 C12.2167549,0.934159261 13.0579938,0.117699106 14.2374628,0.117699106 C14.8313271,0.117699106 15.3756338,0.266371666 15.8538639,0.670265462 L15.433451,1.30542769 C15.1034804,1.04153389 14.6830675,0.893274305 14.2870203,0.893274305 C13.7344539,0.893274305 13.2314451,1.14890852 13.1075513,1.85799405 L16.0355748,1.85799405 C16.0438344,1.96536867 16.052094,2.07233032 16.052094,2.18796454 L16.052094,2.18796454 Z M29.7386423,3.45168132 C29.5627131,3.45168132 29.3995863,3.42070787 29.2488488,3.35917394 C29.0976984,3.29722704 28.9671969,3.21091437 28.8577574,3.09982292 C28.7479049,2.98873149 28.6611792,2.85533915 28.5984064,2.7004719 C28.5352205,2.54519167 28.5034211,2.3746312 28.5034211,2.18796454 C28.5034211,2.00129788 28.5352205,1.83032443 28.5984064,1.67545718 C28.6611792,1.52017694 28.7479049,1.3871976 28.8577574,1.27610615 C28.9671969,1.16501471 29.0976984,1.07828905 29.2488488,1.01675513 C29.3995863,0.954808227 29.5627131,0.924247757 29.7386423,0.924247757 C29.9141585,0.924247757 30.0776984,0.954808227 30.2284358,1.01675513 C30.3791733,1.07828905 30.5105007,1.16501471 30.6215921,1.27610615 C30.7326836,1.3871976 30.8198222,1.52017694 30.8830081,1.67545718 C30.9461939,1.83032443 30.9775804,2.00129788 30.9775804,2.18796454 C30.9775804,2.3746312 30.9461939,2.54519167 30.8830081,2.7004719 C30.8198222,2.85533915 30.7326836,2.98873149 30.6215921,3.09982292 C30.5105007,3.21091437 30.3791733,3.29722704 30.2284358,3.35917394 C30.0776984,3.42070787 29.9141585,3.45168132 29.7386423,3.45168132 L29.7386423,3.45168132 Z M29.7386423,4.26277275 C30.0430081,4.26277275 30.325073,4.20991138 30.584424,4.10418868 C30.843775,3.99846597 31.0680229,3.85309725 31.2575804,3.66808248 C31.4467247,3.48265477 31.5953973,3.26377571 31.701946,3.01144535 C31.8093207,2.75870199 31.862595,2.48448371 31.862595,2.18796454 C31.862595,1.89144537 31.8093207,1.61722709 31.701946,1.36489671 C31.5953973,1.11215336 31.4467247,0.893274305 31.2575804,0.707846582 C31.0680229,0.522831837 30.843775,0.377463109 30.584424,0.2717404 C30.325073,0.166017687 30.0430081,0.113156332 29.7386423,0.113156332 C29.4338636,0.113156332 29.1517987,0.166017687 28.8924477,0.2717404 C28.6330966,0.377463109 28.4092618,0.522831837 28.2213562,0.707846582 C28.0334506,0.893274305 27.886017,1.11215336 27.7790553,1.36489671 C27.6720937,1.61722709 27.6184064,1.89144537 27.6184064,2.18796454 C27.6184064,2.48448371 27.6720937,2.75870199 27.7790553,3.01144535 C27.886017,3.26377571 28.0334506,3.48265477 28.2213562,3.66808248 C28.4092618,3.85309725 28.6330966,3.99846597 28.8924477,4.10418868 C29.1517987,4.20991138 29.4338636,4.26277275 29.7386423,4.26277275 L29.7386423,4.26277275 Z M8.19268416,2.18796454 C8.19268416,2.88094388 8.64654846,3.44961642 9.38867232,3.44961642 C10.0977579,3.44961642 10.5764009,2.90530964 10.5764009,2.18796454 C10.5764009,1.47061943 10.0977579,0.925899673 9.38867232,0.925899673 C8.64654846,0.925899673 8.19268416,1.49539818 8.19268416,2.18796454 L8.19268416,2.18796454 Z M11.3846015,2.18796454 L11.3846015,4.15911492 L10.5268434,4.15911492 L10.5268434,3.68088486 C10.25469,4.03563412 9.84212365,4.25822996 9.28129771,4.25822996 C8.176165,4.25822996 7.3101473,3.3922123 7.3101473,2.18796454 C7.3101473,0.983716783 8.176165,0.117699106 9.28129771,0.117699106 C9.84212365,0.117699106 10.25469,0.340294968 10.5268434,0.695044223 L10.5268434,0.216814147 L11.3846015,0.216814147 L11.3846015,2.18796454 Z M6.55150427,0.216814147 L6.55150427,2.69097338 C6.55150427,3.62306774 5.95763997,4.2499704 5.00076683,4.25822996 C4.49775801,4.26648956 3.97823,4.1095574 3.61522115,3.55699106 C3.34306777,3.99433619 2.91439521,4.25822996 2.31227133,4.25822996 C1.89144538,4.25822996 1.479292,4.13433616 1.15758109,3.67262527 L1.15758109,4.15911492 L0.299823001,4.15911492 L0.299823001,0.216814147 L1.16584068,0.216814147 L1.16584068,2.40230082 C1.16584068,3.08702057 1.54495572,3.44961642 2.13056042,3.44961642 C2.69964595,3.44961642 2.98831851,3.07876097 2.98831851,2.4105604 L2.98831851,0.216814147 L3.85433619,0.216814147 L3.85433619,2.40230082 C3.85433619,3.08702057 4.25038337,3.44961642 4.8194689,3.44961642 C5.4050736,3.44961642 5.68548657,3.07876097 5.68548657,2.4105604 L5.68548657,0.216814147 L6.55150427,0.216814147 Z" id="path24"></path>
                </g>
                <polygon id="path26" fill="#7673C0" transform="translate(34.999996, 17.952629) scale(-1, 1) rotate(-180.000000) translate(-34.999996, -17.952629) " points="41.5044204 6.26407445 28.4955713 6.26407445 28.4955713 29.641183 41.5044204 29.641183"></polygon>
                <g id="g28" transform="translate(22.972014, 17.952670) scale(-1, 1) rotate(-180.000000) translate(-22.972014, -17.952670) translate(10.737501, 3.085413)" fill="#EB001B">
                    <path d="M18.5840703,14.8672563 C18.5840703,19.609911 20.8046603,23.8334507 24.2625363,26.5558105 C21.7334508,28.5467839 18.5427724,29.7345125 15.0745719,29.7345125 C6.86412963,29.7345125 0.208554567,23.0781115 0.208554567,14.8672563 C0.208554567,6.656401 6.86412963,0 15.0745719,0 C18.5427724,0 21.7334508,1.18772858 24.2625363,3.17870198 C20.8046603,5.90106179 18.5840703,10.1246015 18.5840703,14.8672563" id="path30"></path>
                </g>
                <g id="g32" transform="translate(58.021983, 26.855596) scale(-1, 1) rotate(-180.000000) translate(-58.021983, -26.855596) translate(57.247647, 26.545861)" fill="#00A1DF">
                    <path d="M1.34218285,0 L1.34218285,0.576932139 L1.19144539,0.576932139 L1.01840705,0.180058993 L0.844955724,0.576932139 L0.694218263,0.576932139 L0.694218263,0 L0.800766933,0 L0.800766933,0.435280226 L0.963067815,0.0598820046 L1.0733333,0.0598820046 L1.23604716,0.436106182 L1.23604716,0 L1.34218285,0 Z M0.387787592,0 L0.387787592,0.478643054 L0.581061925,0.478643054 L0.581061925,0.576106179 L0.0896165088,0.576106179 L0.0896165088,0.478643054 L0.282477861,0.478643054 L0.282477861,0 L0.387787592,0 Z" id="path34"></path>
                </g>
                <g id="g36" transform="translate(47.077660, 17.952670) scale(-1, 1) rotate(-180.000000) translate(-47.077660, -17.952670) translate(34.998014, 3.085413)" fill="#00A1DF">
                    <path d="M24.0560466,14.8672563 C24.0560466,6.656401 17.4000586,0 9.19002926,0 C5.72182874,0 2.53073739,1.18772858 0.0020648885,3.17870198 C3.45994092,5.90106179 5.68053082,10.1246015 5.68053082,14.8672563 C5.68053082,19.609911 3.45994092,23.8334507 0.0020648885,26.5558105 C2.53073739,28.5467839 5.72182874,29.7345125 9.19002926,29.7345125 C17.4000586,29.7345125 24.0560466,23.0781115 24.0560466,14.8672563" id="path38"></path>
                </g>
            </g>
        </g>
    </g>
</svg>